<svg xmlns="http://www.w3.org/2000/svg" width="430" height="430" fill="none" viewBox="0 0 430 430"><g stroke-linecap="round" stroke-linejoin="round" stroke-miterlimit="10" stroke-width="18"><path stroke="#08a88a" d="M32 150.5c8.8-5.9 19.4-9.3 30.8-9.3 23.9 0 44.3 15.2 52 36.4 4.4-2 9.3-3.2 14.4-3.2 9.4 0 18 3.8 24.2 10v-.9c0-23 18.6-41.6 41.6-41.6 21.1 0 38.4 15.6 41.2 35.9 11.7-11 27.5-17.8 44.9-17.8 11.4 0 22.1 2.9 31.4 8"/><path stroke="#08a88a" d="M355.5 68c23.8 0 43.1 19.3 43.1 43.1V254c0 23.8-19.3 43.1-43.1 43.1s-43.1-19.3-43.1-43.1V111.1c0-23.8 19.3-43.1 43.1-43.1"/><path stroke="#121331" d="M355.4 361.6V260.2L338 242.9m3.199 118.7h25.9M44.6 326.4v34.5m225.301-145h-204.1v49.2h204.1zM291 326.4H44.6l21.2-32.5h204.1zM65.8 293.9v-28.8c-11.7 0-21.2 9.5-21.2 21.2v40.1"/><path stroke="#121331" d="M269.9 293.9v-28.8c11.7 0 21.2 9.5 21.2 21.2v40.1m-.1 0v34.5"/></g></svg>