<svg xmlns="http://www.w3.org/2000/svg" width="430" height="430" fill="none" viewBox="0 0 430 430"><g stroke-linecap="round" stroke-linejoin="round" stroke-miterlimit="14" stroke-width="18"><path stroke="#121331" d="M338.7 305.2c-37.3 17.9-79.1 27.8-123.3 27.3s-85.7-11.2-122.6-30"/><path stroke="#121331" d="M73.4 340.8c42.499 21.6 90.599 34 141.499 34.6s99.3-10.8 142.3-31.5l-18.6-38.7-120.1-250.6M72.8 340.7l9.7-19.1c5.4-10.6 14.7-28.9 20.9-41l12.6-24.8c6.1-12 11.2-21.9 11.2-22.1.1-.1.1-.3.2-.3 0 0 4.1-8.1 9.1-17.9 5-9.9 9.1-17.9 9.1-17.9s.1-.1.1-.3c.1-.2 4.1-8 8.9-17.5 4.9-9.5 8.9-17.4 8.9-17.5.1-.2.1-.3.1-.3s4.1-8 9.1-17.9 9.1-17.9 9.1-17.9l.2-.4c.1-.2 5.2-10.1 11.3-22.2l24.9-48.9"/><path stroke="#08a88a" d="M249.6 274.2c-10.3-5.2-14.3-17.8-9.1-28s17.8-14.3 28-9.1c10.3 5.2 14.3 17.8 9.1 28s-17.7 14.3-28 9.1m-84.7 3.4c-10.3-5.2-14.3-17.8-9.1-28 5.2-10.3 17.8-14.3 28-9.1s14.3 17.8 9.1 28c-5.2 10.3-17.8 14.3-28 9.1m42.8-84c-10.3-5.2-14.3-17.8-9.1-28s17.8-14.3 28-9.1c10.3 5.2 14.3 17.8 9.1 28s-17.7 14.3-28 9.1"/></g></svg>