<svg xmlns="http://www.w3.org/2000/svg" width="430" height="430" fill="none" viewBox="0 0 430 430"><g stroke-linecap="round" stroke-linejoin="round" stroke-miterlimit="10" stroke-width="18"><path stroke="#08a88a" d="m296.301 55-58.5 144.9"/><path stroke="#121331" d="m250.6 55-35.7 88.2M343.7 55l-75.1 185.7M179.199 55l35.7 88.2 22.9 56.7 11 27.1M161.2 240.7 86 55"/><path stroke="#08a88a" d="M200 220.6 133.1 55"/><path stroke="#121331" d="M214.9 375.2c43.079 0 78-34.922 78-78s-34.921-78-78-78-78 34.922-78 78 34.922 78 78 78"/><path stroke="#08a88a" d="m203.301 288.8 14.4-14.5v45.8"/><path stroke="#121331" d="M214.898 243.929h.1m26.4 7.134h.1m19.492 19.478h.1m6.808 26.709h.1m-7.008 26.613h.1m-19.352 19.591h.1m-27.104 7.021h.1m-26.711-7.021h.1m-19.42-19.433h.1m-7.395-26.841h.1m7.095-26.776h.1m19.478-19.341h.1"/></g></svg>